<mxfile host="app.diagrams.net" modified="2023-04-17T06:40:03.184Z" agent="Mozilla/5.0 (Windows NT 10.0; Win64; x64) AppleWebKit/537.36 (KHTML, like Gecko) Chrome/112.0.0.0 Safari/537.36" etag="OvlAdUc76JRV39_IITFI" version="21.1.7" type="github">
  <diagram name="系统流程" id="3SeAbn52bV37uiABCFJ7">
    <mxGraphModel dx="1834" dy="796" grid="0" gridSize="10" guides="1" tooltips="1" connect="1" arrows="1" fold="1" page="0" pageScale="1" pageWidth="827" pageHeight="1169" math="0" shadow="0">
      <root>
        <mxCell id="0" />
        <mxCell id="1" parent="0" />
        <mxCell id="ko7TAwGxMH7-9SO4Kcsc-1" value="添加设备" style="rounded=0;whiteSpace=wrap;html=1;" vertex="1" parent="1">
          <mxGeometry x="-149" y="160" width="120" height="60" as="geometry" />
        </mxCell>
        <mxCell id="ko7TAwGxMH7-9SO4Kcsc-3" value="" style="verticalLabelPosition=bottom;verticalAlign=top;html=1;strokeWidth=2;shape=mxgraph.arrows2.arrow;dy=0.6;dx=40;notch=0;" vertex="1" parent="1">
          <mxGeometry x="4" y="157" width="100" height="70" as="geometry" />
        </mxCell>
        <mxCell id="ko7TAwGxMH7-9SO4Kcsc-4" value="参数设置（报警配置）" style="rounded=0;whiteSpace=wrap;html=1;" vertex="1" parent="1">
          <mxGeometry x="142" y="162" width="120" height="60" as="geometry" />
        </mxCell>
        <mxCell id="ko7TAwGxMH7-9SO4Kcsc-5" value="" style="verticalLabelPosition=bottom;verticalAlign=top;html=1;strokeWidth=2;shape=mxgraph.arrows2.arrow;dy=0.6;dx=40;notch=0;" vertex="1" parent="1">
          <mxGeometry x="305" y="157" width="100" height="70" as="geometry" />
        </mxCell>
        <mxCell id="ko7TAwGxMH7-9SO4Kcsc-6" value="报警管理" style="rounded=0;whiteSpace=wrap;html=1;" vertex="1" parent="1">
          <mxGeometry x="440" y="164" width="120" height="60" as="geometry" />
        </mxCell>
        <mxCell id="ko7TAwGxMH7-9SO4Kcsc-7" value="" style="verticalLabelPosition=bottom;verticalAlign=top;html=1;strokeWidth=2;shape=mxgraph.arrows2.arrow;dy=0.6;dx=40;notch=0;" vertex="1" parent="1">
          <mxGeometry x="603" y="160" width="100" height="70" as="geometry" />
        </mxCell>
        <mxCell id="ko7TAwGxMH7-9SO4Kcsc-8" value="工单管理" style="rounded=0;whiteSpace=wrap;html=1;" vertex="1" parent="1">
          <mxGeometry x="734" y="164" width="120" height="60" as="geometry" />
        </mxCell>
        <mxCell id="ko7TAwGxMH7-9SO4Kcsc-9" value="巡检管理" style="rounded=0;whiteSpace=wrap;html=1;" vertex="1" parent="1">
          <mxGeometry x="1007" y="165" width="120" height="60" as="geometry" />
        </mxCell>
        <mxCell id="ko7TAwGxMH7-9SO4Kcsc-10" value="" style="verticalLabelPosition=bottom;verticalAlign=top;html=1;strokeWidth=2;shape=mxgraph.arrows2.arrow;dy=0.6;dx=40;notch=0;" vertex="1" parent="1">
          <mxGeometry x="879" y="162" width="100" height="70" as="geometry" />
        </mxCell>
      </root>
    </mxGraphModel>
  </diagram>
</mxfile>
